<?xml version="1.0" encoding="utf-8"?>
<svg xmlns="http://www.w3.org/2000/svg" xmlns:xlink="http://www.w3.org/1999/xlink" style="shape-rendering: auto;" width="201px" height="201px" viewBox="0 0 100 100" preserveAspectRatio="xMidYMid">
<g transform="rotate(0 50 50)">
  <rect x="48" y="25.5" rx="1.69" ry="1.69" width="4" height="13" fill="#6a6a6a">
    <animate attributeName="opacity" values="1;0" keyTimes="0;1" dur="0.8474576271186441s" begin="-0.7415254237288136s" repeatCount="indefinite"></animate>
  </rect>
</g><g transform="rotate(45 50 50)">
  <rect x="48" y="25.5" rx="1.69" ry="1.69" width="4" height="13" fill="#6a6a6a">
    <animate attributeName="opacity" values="1;0" keyTimes="0;1" dur="0.8474576271186441s" begin="-0.6355932203389831s" repeatCount="indefinite"></animate>
  </rect>
</g><g transform="rotate(90 50 50)">
  <rect x="48" y="25.5" rx="1.69" ry="1.69" width="4" height="13" fill="#6a6a6a">
    <animate attributeName="opacity" values="1;0" keyTimes="0;1" dur="0.8474576271186441s" begin="-0.5296610169491526s" repeatCount="indefinite"></animate>
  </rect>
</g><g transform="rotate(135 50 50)">
  <rect x="48" y="25.5" rx="1.69" ry="1.69" width="4" height="13" fill="#6a6a6a">
    <animate attributeName="opacity" values="1;0" keyTimes="0;1" dur="0.8474576271186441s" begin="-0.42372881355932207s" repeatCount="indefinite"></animate>
  </rect>
</g><g transform="rotate(180 50 50)">
  <rect x="48" y="25.5" rx="1.69" ry="1.69" width="4" height="13" fill="#6a6a6a">
    <animate attributeName="opacity" values="1;0" keyTimes="0;1" dur="0.8474576271186441s" begin="-0.31779661016949157s" repeatCount="indefinite"></animate>
  </rect>
</g><g transform="rotate(225 50 50)">
  <rect x="48" y="25.5" rx="1.69" ry="1.69" width="4" height="13" fill="#6a6a6a">
    <animate attributeName="opacity" values="1;0" keyTimes="0;1" dur="0.8474576271186441s" begin="-0.21186440677966104s" repeatCount="indefinite"></animate>
  </rect>
</g><g transform="rotate(270 50 50)">
  <rect x="48" y="25.5" rx="1.69" ry="1.69" width="4" height="13" fill="#6a6a6a">
    <animate attributeName="opacity" values="1;0" keyTimes="0;1" dur="0.8474576271186441s" begin="-0.10593220338983052s" repeatCount="indefinite"></animate>
  </rect>
</g><g transform="rotate(315 50 50)">
  <rect x="48" y="25.5" rx="1.69" ry="1.69" width="4" height="13" fill="#6a6a6a">
    <animate attributeName="opacity" values="1;0" keyTimes="0;1" dur="0.8474576271186441s" begin="0s" repeatCount="indefinite"></animate>
  </rect>
</g>
<!-- [ldio] generated by https://loading.io/ --></svg>